<svg id="visual" viewBox="0 0 1920 1080" width="1920" height="1080" xmlns="http://www.w3.org/2000/svg" xmlns:xlink="http://www.w3.org/1999/xlink" version="1.1"><rect x="0" y="0" width="3840" height="2160" fill="#04111a"></rect><defs><linearGradient id="grad1_0" x1="43.8%" y1="0%" x2="100%" y2="100%"><stop offset="14.444444444444446%" stop-color="#04111a" stop-opacity="1"></stop><stop offset="85.55555555555554%" stop-color="#04111a" stop-opacity="1"></stop></linearGradient></defs><defs><linearGradient id="grad2_0" x1="0%" y1="0%" x2="56.3%" y2="100%"><stop offset="14.444444444444446%" stop-color="#04111a" stop-opacity="1"></stop><stop offset="85.55555555555554%" stop-color="#04111a" stop-opacity="1"></stop></linearGradient></defs><g transform="translate(3840, 0)"><path d="M0 1944C-200.5 1914.1 -401.1 1884.2 -593.9 1827.9C-786.8 1771.7 -972 1689.1 -1142.7 1572.7C-1313.3 1456.4 -1469.5 1306.3 -1553.3 1128.5C-1637.1 950.8 -1648.4 745.5 -1701.4 552.8C-1754.5 360.1 -1849.2 180.1 -1944 0L0 0Z" fill="#0166ff"></path></g><g transform="translate(0, 2160)"><path d="M0 -1944C183.4 -1846.3 366.7 -1748.5 542.3 -1669.1C717.9 -1589.7 885.7 -1528.5 1045.1 -1438.4C1204.5 -1348.3 1355.4 -1229.2 1498.3 -1088.6C1641.2 -947.9 1775.9 -785.7 1848.9 -600.7C1921.8 -415.7 1932.9 -207.9 1944 0L0 0Z" fill="#0166ff"></path></g></svg>