<svg id="visual" viewBox="0 0 1920 1080" width="1920" height="1080" xmlns="http://www.w3.org/2000/svg" xmlns:xlink="http://www.w3.org/1999/xlink" version="1.1"><rect x="0" y="0" width="1920" height="1080" fill="#05111a"></rect><defs><linearGradient id="grad1_0" x1="43.8%" y1="0%" x2="100%" y2="100%"><stop offset="14.444444444444446%" stop-color="#05111a" stop-opacity="1"></stop><stop offset="85.55555555555554%" stop-color="#05111a" stop-opacity="1"></stop></linearGradient></defs><defs><linearGradient id="grad2_0" x1="0%" y1="0%" x2="56.3%" y2="100%"><stop offset="14.444444444444446%" stop-color="#05111a" stop-opacity="1"></stop><stop offset="85.55555555555554%" stop-color="#05111a" stop-opacity="1"></stop></linearGradient></defs><g transform="translate(1920, 0)"><path d="M0 756C-92.3 729.5 -184.5 703 -277.8 670.7C-371.1 638.4 -465.5 600.3 -534.6 534.6C-603.6 468.8 -647.3 375.4 -680 281.7C-712.7 187.9 -734.3 94 -756 0L0 0Z" fill="#3586ff"></path></g><g transform="translate(0, 1080)"><path d="M0 -756C112.1 -755.9 224.2 -755.8 287 -692.9C349.9 -630 363.5 -504.3 434.9 -434.9C506.2 -365.5 635.3 -352.4 698.5 -289.3C761.6 -226.2 758.8 -113.1 756 0L0 0Z" fill="#3586ff"></path></g></svg>